<svg width="24" height="24" viewBox="0 0 24 24" fill="none" xmlns="http://www.w3.org/2000/svg">
<path d="M6 17V7C6 6.71667 6.09567 6.479 6.287 6.287C6.479 6.09567 6.71667 6 7 6C7.28333 6 7.521 6.09567 7.713 6.287C7.90433 6.479 8 6.71667 8 7V17C8 17.2833 7.90433 17.5207 7.713 17.712C7.521 17.904 7.28333 18 7 18C6.71667 18 6.479 17.904 6.287 17.712C6.09567 17.5207 6 17.2833 6 17ZM11.525 17.1C11.1917 17.3 10.854 17.3 10.512 17.1C10.1707 16.9 10 16.6083 10 16.225V7.775C10 7.39167 10.1707 7.1 10.512 6.9C10.854 6.7 11.1917 6.7 11.525 6.9L18.575 11.15C18.9083 11.35 19.075 11.6333 19.075 12C19.075 12.3667 18.9083 12.65 18.575 12.85L11.525 17.1ZM12 14.475L16.125 12L12 9.525V14.475Z" fill="currentColor"/>
</svg>
