<svg width="286" height="54" viewBox="0 0 286 54" fill="none" xmlns="http://www.w3.org/2000/svg">
<path d="M18.4125 22.5H29.1C28.425 20.775 27.394 19.2935 26.007 18.0555C24.619 16.8185 23.025 15.95 21.225 15.45L17.775 21.375C17.625 21.625 17.625 21.875 17.775 22.125C17.925 22.375 18.1375 22.5 18.4125 22.5ZM13.0125 24.375C13.1625 24.625 13.375 24.75 13.65 24.75C13.925 24.75 14.1375 24.625 14.2875 24.375L19.65 15.15C19.375 15.1 19.1 15.0625 18.825 15.0375C18.55 15.0125 18.275 15 18 15C16.35 15 14.8125 15.3125 13.3875 15.9375C11.9625 16.5625 10.7 17.4 9.6 18.45L13.0125 24.375ZM6.375 30H13.2375C13.5125 30 13.731 29.875 13.893 29.625C14.056 29.375 14.0625 29.125 13.9125 28.875L8.55 19.65C7.75 20.675 7.125 21.8065 6.675 23.0445C6.225 24.2815 6 25.6 6 27C6 27.525 6.031 28.031 6.093 28.518C6.156 29.006 6.25 29.5 6.375 30ZM14.775 38.55L18.1875 32.625C18.3375 32.375 18.3315 32.125 18.1695 31.875C18.0065 31.625 17.7875 31.5 17.5125 31.5H6.9C7.575 33.225 8.6065 34.706 9.9945 35.943C11.3815 37.181 12.975 38.05 14.775 38.55ZM18 39C19.65 39 21.1875 38.6875 22.6125 38.0625C24.0375 37.4375 25.3 36.6 26.4 35.55L22.9875 29.625C22.8375 29.375 22.625 29.25 22.35 29.25C22.075 29.25 21.8625 29.375 21.7125 29.625L16.35 38.85C16.625 38.9 16.894 38.9375 17.157 38.9625C17.419 38.9875 17.7 39 18 39ZM27.45 34.35C28.25 33.325 28.875 32.1935 29.325 30.9555C29.775 29.7185 30 28.4 30 27C30 26.475 29.969 25.969 29.907 25.482C29.844 24.994 29.75 24.5 29.625 24H22.7625C22.4875 24 22.269 24.125 22.107 24.375C21.944 24.625 21.9375 24.875 22.0875 25.125L27.45 34.35ZM18 42C15.95 42 14.0125 41.606 12.1875 40.818C10.3625 40.031 8.769 38.956 7.407 37.593C6.044 36.231 4.969 34.6375 4.182 32.8125C3.394 30.9875 3 29.05 3 27C3 24.925 3.394 22.9815 4.182 21.1695C4.969 19.3565 6.044 17.769 7.407 16.407C8.769 15.044 10.3625 13.9685 12.1875 13.1805C14.0125 12.3935 15.95 12 18 12C20.075 12 22.0185 12.3935 23.8305 13.1805C25.6435 13.9685 27.231 15.044 28.593 16.407C29.956 17.769 31.031 19.3565 31.818 21.1695C32.606 22.9815 33 24.925 33 27C33 29.05 32.606 30.9875 31.818 32.8125C31.031 34.6375 29.956 36.231 28.593 37.593C27.231 38.956 25.6435 40.031 23.8305 40.818C22.0185 41.606 20.075 42 18 42Z" fill="#FF4454"/>
<path d="M47.1 43.6L58.98 9.688H61.32L49.44 43.6H47.1ZM84.5285 40.216C82.6325 40.216 80.8805 39.904 79.2725 39.28C77.6645 38.632 76.2725 37.732 75.0965 36.58C73.9205 35.428 72.9965 34.072 72.3245 32.512C71.6765 30.952 71.3525 29.248 71.3525 27.4C71.3525 25.552 71.6765 23.848 72.3245 22.288C72.9965 20.728 73.9205 19.372 75.0965 18.22C76.2965 17.068 77.7005 16.18 79.3085 15.556C80.9165 14.908 82.6685 14.584 84.5645 14.584C86.3885 14.584 88.1045 14.896 89.7125 15.52C91.3205 16.12 92.6765 17.032 93.7805 18.256L92.0885 19.948C91.0565 18.892 89.9165 18.136 88.6685 17.68C87.4205 17.2 86.0765 16.96 84.6365 16.96C83.1245 16.96 81.7205 17.224 80.4245 17.752C79.1285 18.256 78.0005 18.988 77.0405 19.948C76.0805 20.884 75.3245 21.988 74.7725 23.26C74.2445 24.508 73.9805 25.888 73.9805 27.4C73.9805 28.912 74.2445 30.304 74.7725 31.576C75.3245 32.824 76.0805 33.928 77.0405 34.888C78.0005 35.824 79.1285 36.556 80.4245 37.084C81.7205 37.588 83.1245 37.84 84.6365 37.84C86.0765 37.84 87.4205 37.6 88.6685 37.12C89.9165 36.64 91.0565 35.872 92.0885 34.816L93.7805 36.508C92.6765 37.732 91.3205 38.656 89.7125 39.28C88.1045 39.904 86.3765 40.216 84.5285 40.216ZM99.4595 40V14.8H102.123V40H99.4595ZM110.323 40V14.8H112.519L129.907 36.688H128.755V14.8H131.383V40H129.187L111.835 18.112H112.987V40H110.323ZM141.984 26.068H155.304V28.336H141.984V26.068ZM142.272 37.696H157.428V40H139.608V14.8H156.888V17.104H142.272V37.696ZM163.69 40V14.8H165.886L177.406 34.456H176.254L187.666 14.8H189.862V40H187.306V18.796H187.918L177.406 36.796H176.146L165.562 18.796H166.246V40H163.69ZM194.041 40L205.561 14.8H208.189L219.709 40H216.901L206.317 16.348H207.397L196.813 40H194.041ZM198.577 33.268L199.369 31.108H214.021L214.813 33.268H198.577ZM227.508 40V17.104H218.652V14.8H239.028V17.104H230.172V40H227.508ZM245.66 26.068H258.98V28.336H245.66V26.068ZM245.948 37.696H261.104V40H243.284V14.8H260.564V17.104H245.948V37.696ZM274.314 40.216C272.442 40.216 270.642 39.916 268.914 39.316C267.21 38.692 265.89 37.9 264.954 36.94L265.998 34.888C266.886 35.752 268.074 36.484 269.562 37.084C271.074 37.66 272.658 37.948 274.314 37.948C275.898 37.948 277.182 37.756 278.166 37.372C279.174 36.964 279.906 36.424 280.362 35.752C280.842 35.08 281.082 34.336 281.082 33.52C281.082 32.536 280.794 31.744 280.218 31.144C279.666 30.544 278.934 30.076 278.022 29.74C277.11 29.38 276.102 29.068 274.998 28.804C273.894 28.54 272.79 28.264 271.686 27.976C270.582 27.664 269.562 27.256 268.626 26.752C267.714 26.248 266.97 25.588 266.394 24.772C265.842 23.932 265.566 22.84 265.566 21.496C265.566 20.248 265.89 19.108 266.538 18.076C267.21 17.02 268.23 16.18 269.598 15.556C270.966 14.908 272.718 14.584 274.854 14.584C276.27 14.584 277.674 14.788 279.066 15.196C280.458 15.58 281.658 16.12 282.666 16.816L281.766 18.94C280.686 18.22 279.534 17.692 278.31 17.356C277.11 17.02 275.946 16.852 274.818 16.852C273.306 16.852 272.058 17.056 271.074 17.464C270.09 17.872 269.358 18.424 268.878 19.12C268.422 19.792 268.194 20.56 268.194 21.424C268.194 22.408 268.47 23.2 269.022 23.8C269.598 24.4 270.342 24.868 271.254 25.204C272.19 25.54 273.21 25.84 274.314 26.104C275.418 26.368 276.51 26.656 277.59 26.968C278.694 27.28 279.702 27.688 280.614 28.192C281.55 28.672 282.294 29.32 282.846 30.136C283.422 30.952 283.71 32.02 283.71 33.34C283.71 34.564 283.374 35.704 282.702 36.76C282.03 37.792 280.998 38.632 279.606 39.28C278.238 39.904 276.474 40.216 274.314 40.216Z" fill="currentColor"/>
</svg>
