<svg width="36" height="36" viewBox="0 0 36 36" fill="none" xmlns="http://www.w3.org/2000/svg">
<path d="M18.4125 13.5H29.1C28.425 11.775 27.394 10.2935 26.007 9.0555C24.619 7.8185 23.025 6.95 21.225 6.45L17.775 12.375C17.625 12.625 17.625 12.875 17.775 13.125C17.925 13.375 18.1375 13.5 18.4125 13.5ZM13.0125 15.375C13.1625 15.625 13.375 15.75 13.65 15.75C13.925 15.75 14.1375 15.625 14.2875 15.375L19.65 6.15C19.375 6.1 19.1 6.0625 18.825 6.0375C18.55 6.0125 18.275 6 18 6C16.35 6 14.8125 6.3125 13.3875 6.9375C11.9625 7.5625 10.7 8.4 9.6 9.45L13.0125 15.375ZM6.375 21H13.2375C13.5125 21 13.731 20.875 13.893 20.625C14.056 20.375 14.0625 20.125 13.9125 19.875L8.55 10.65C7.75 11.675 7.125 12.8065 6.675 14.0445C6.225 15.2815 6 16.6 6 18C6 18.525 6.031 19.031 6.093 19.518C6.156 20.006 6.25 20.5 6.375 21ZM14.775 29.55L18.1875 23.625C18.3375 23.375 18.3315 23.125 18.1695 22.875C18.0065 22.625 17.7875 22.5 17.5125 22.5H6.9C7.575 24.225 8.6065 25.706 9.9945 26.943C11.3815 28.181 12.975 29.05 14.775 29.55ZM18 30C19.65 30 21.1875 29.6875 22.6125 29.0625C24.0375 28.4375 25.3 27.6 26.4 26.55L22.9875 20.625C22.8375 20.375 22.625 20.25 22.35 20.25C22.075 20.25 21.8625 20.375 21.7125 20.625L16.35 29.85C16.625 29.9 16.894 29.9375 17.157 29.9625C17.419 29.9875 17.7 30 18 30ZM27.45 25.35C28.25 24.325 28.875 23.1935 29.325 21.9555C29.775 20.7185 30 19.4 30 18C30 17.475 29.969 16.969 29.907 16.482C29.844 15.994 29.75 15.5 29.625 15H22.7625C22.4875 15 22.269 15.125 22.107 15.375C21.944 15.625 21.9375 15.875 22.0875 16.125L27.45 25.35ZM18 33C15.95 33 14.0125 32.606 12.1875 31.818C10.3625 31.031 8.769 29.956 7.407 28.593C6.044 27.231 4.969 25.6375 4.182 23.8125C3.394 21.9875 3 20.05 3 18C3 15.925 3.394 13.9815 4.182 12.1695C4.969 10.3565 6.044 8.769 7.407 7.407C8.769 6.044 10.3625 4.9685 12.1875 4.1805C14.0125 3.3935 15.95 3 18 3C20.075 3 22.0185 3.3935 23.8305 4.1805C25.6435 4.9685 27.231 6.044 28.593 7.407C29.956 8.769 31.031 10.3565 31.818 12.1695C32.606 13.9815 33 15.925 33 18C33 20.05 32.606 21.9875 31.818 23.8125C31.031 25.6375 29.956 27.231 28.593 28.593C27.231 29.956 25.6435 31.031 23.8305 31.818C22.0185 32.606 20.075 33 18 33Z" fill="#FF4454"/>
</svg>
